inDegrees=yes
name=ik_OpenSim_Sub02_CSBaseline_Orientations
DataType=double
version=3
OpenSimVersion=4.4-2022-07-23-0e9fedc
endheader
time	pelvis_tilt	pelvis_list	pelvis_rotation	pelvis_tx	pelvis_ty	pelvis_tz	hip_flexion_r	hip_adduction_r	hip_rotation_r	knee_angle_r	knee_angle_r_beta	ankle_angle_r	hip_flexion_l	hip_adduction_l	hip_rotation_l	knee_angle_l	knee_angle_l_beta	ankle_angle_l
31.25	2.446342166957854	4.587135234131297	-28.64044158059349	0	0.93	0	16.80456543278009	-16.81656619110566	-17.17711825247324	55.88779860388501	0.9754260973292835	-5.949882801455681	-1.674149851994017	10.28181878311393	24.1555965446761	0.02727492389925011	0.0004760372252728045	3.20163641204602
31.26	2.356626667214587	4.764737693072264	-28.64046214847103	0	0.93	0	17.63180230112197	-16.75196593513412	-17.17694334133376	54.90573274966137	0.9582858147016704	-5.280135805342415	-1.877844342032143	10.20011204947815	23.94370930824155	0.02742359840908871	0.0004786320849832769	3.540419986660088
31.27	2.247854978227187	4.945808155953482	-28.64047613366056	0	0.93	0	18.26524153332108	-16.46403408253404	-17.17673509923112	53.42871845624163	0.9325070521824784	-4.586310111316713	-2.056656080483312	10.12959404545828	23.72735165171894	0.0275144247531997	0.000480217303735563	3.891468322228636
31.28	2.124546402966188	5.053203090567491	-28.64045692949554	0	0.93	0	18.77484850934297	-15.96600359492796	-17.17643148011815	51.76964832302505	0.903550815836348	-3.703787731996795	-2.257192972421711	9.97312210144092	23.52590762043197	0.0276458961879353	0.00048251191314402	4.226681350090596
31.29	1.987064289886962	5.101499509637152	-28.64040821253795	0	0.93	0	19.14870320655641	-15.30123717574022	-17.17605646611278	49.766545856915	0.8685900825479096	-2.904788369855824	-2.449164932686589	9.77500972433519	23.31468904402772	0.02779671916352257	0.0004851442706556729	4.52507896190017
31.3	1.827555518127104	5.093104356627516	-28.64031486587592	0	0.93	0	19.38153880944549	-14.525428624665	-17.17548464393731	47.47303176632521	0.8285607102262342	-2.235392121513234	-2.654584341652141	9.499802503047585	23.13019140367829	0.02800296332959818	0.0004887439104167223	4.853659180648983
31.31	1.676802585328141	5.042955813923693	-28.64015895274806	0	0.93	0	19.52039077829897	-13.70721219163335	-17.17472230258942	45.0287334229393	0.7858996562331071	-1.638859010382994	-2.893346476566787	9.209338983977256	22.97450106818791	0.02830245592694999	0.000493971042325861	5.182094149416207
31.32	1.496310190096411	5.00063063614315	-28.63998082067111	0	0.93	0	19.6449113595336	-12.89099163831526	-17.17372251120729	42.33535998853645	0.7388914218170298	-1.357908896196854	-3.106011846371239	8.91124051423165	22.83107475411329	0.02862257126089407	0.0004995581088893063	5.48598955333524
31.33	1.331490848557603	4.940859166065144	-28.63978062996691	0	0.93	0	19.70468932296654	-12.05872168073445	-17.17257172829542	39.57429800034539	0.690701799271435	-1.04695960535312	-3.336957428558259	8.596416701338851	22.69728718865145	0.02899235750918031	0.0005060120964504985	5.81406045142953
31.34	1.173872384456533	4.877745884922521	-28.63958284305084	0	0.93	0	19.70275560576896	-11.23513798787741	-17.17128763088163	36.65467352283534	0.6397447392170655	-0.9111347955008977	-3.580587177967897	8.285543669870394	22.58616067161751	0.02943032299750828	0.0005136560362319263	6.132842924454846
31.35	1.005598629576652	4.815125004100852	-28.63937283810145	0	0.93	0	19.66615490014926	-10.41918920762298	-17.16975907442459	33.51508895809498	0.5849486514175533	-1.102491981253337	-3.798250430151075	7.978687928058956	22.46944625574293	0.02987377334226005	0.0005213957048169487	6.431761003334953
31.36	0.8425076082960747	4.751319734160416	-28.63914199011608	0	0.93	0	19.56335264364758	-9.609671760777692	-17.16791729113142	30.23698370209179	0.527734921473366	-1.468076681503316	-4.012656736104614	7.648127593691583	22.32466567578739	0.03033095751111159	0.0005293750738514018	6.729989167477246
31.37	0.6747649266847947	4.668849769093286	-28.63887765625026	0	0.93	0	19.45637933192628	-8.816127691070943	-17.16570573562448	26.90992499433515	0.4696667926158648	-2.028382916798345	-4.252334663313887	7.320673573765203	22.19815431214797	0.03084458356892595	0.0005383395396843011	7.028197582035551
31.38	0.5207075620853988	4.583672634383967	-28.63855351713633	0	0.93	0	19.35384721159707	-8.106116879210635	-17.16259166505819	23.56073837089307	0.411212458773049	-2.821983652165525	-4.494490168905935	7.001133808685122	22.07423402173976	0.03149797340388212	0.0005497433436033487	7.31489168115367
31.39	0.3729730504319009	4.475839444244919	-28.63814477927991	0	0.93	0	19.25384468706282	-7.404702153211981	-17.157912279074	20.30134542300731	0.3543253202161585	-3.653773766273869	-4.754007462911344	6.66111306877541	21.94764911451833	0.0322669748088936	0.0005631649500732614	7.618332047375296
31.4	0.2269185465642786	4.333485042764374	-28.63760776939035	0	0.93	0	19.18326852507163	-6.660989537954873	-17.15007228570508	17.22951955361429	0.3007118447473131	-4.385448321774608	-5.021199632708659	6.301264856564623	21.82314486403467	0.03322543560554109	0.000579893246726048	7.903110885329371
31.41	0.08376455090118347	4.132849180027303	-28.63677253277869	0	0.93	0	19.20587684966152	-5.919767029198264	-17.13244676869196	14.54678002993931	0.2538892070858003	-4.794945346723009	-5.37099792293916	5.860804714325432	21.66601209919671	0.03398314285787975	0.000593117733045597	8.239732941531328
31.42	-0.06818617613772991	3.894356543073878	-28.6355219919027	0	0.93	0	19.34625929961204	-5.261737084254372	-17.06380567483554	12.31728447401136	0.2149771689762761	-4.918446447259216	-5.631145976886011	5.46354724177166	21.58390026908577	0.03509465989844174	0.0006125173650954272	8.458239154873402
31.43	-0.1982145980329176	3.753591389700661	-28.63451854919755	0	0.93	0	19.56762308581387	-4.747557432920735	-16.53128855841171	10.39764991166765	0.1814732254282981	-4.756231915900041	-5.974900202302052	5.062323112230747	21.37622452102183	0.03592246869961573	0.0006269653542529003	8.809275154885523
31.44	-0.2656230173516426	3.808412884202073	-28.63436900342238	0	0.93	0	19.74336824072848	-4.417684826264258	-15.38750369026277	8.439038989457741	0.1472890160702126	-4.61603180955334	-6.275746600813624	4.870262059901167	21.21397589643569	0.03684993491291699	0.0006431526933760115	9.142957336806006
31.45	-0.3132754774648909	3.876429838227279	-28.6343128726023	0	0.93	0	19.88091874013689	-4.182440392423422	-14.13040368305115	6.569431348527553	0.1146582070155369	-4.51789463069257	-6.545817460099467	4.730676368849519	21.12261279789681	0.03819587140698133	0.0006666437167201833	9.444040480354509
31.46	-0.348050244071893	3.945226473555625	-28.63426749244993	0	0.93	0	19.9968421096511	-4.069875112232944	-12.81801244970374	4.801861707914788	0.0838082970285513	-4.520644484310819	-6.847884685058849	4.585712447058671	21.02899637578016	0.03961609287373039	0.0006914312574224574	9.74744767393652
31.47	-0.369575466468965	4.007617329281572	-28.63421539856791	0	0.93	0	20.13066663870995	-4.08145493035628	-11.43306591036133	3.266740545935975	0.05701537833497983	-4.511603147076029	-7.142797775036088	4.441111046192727	20.92317325653064	0.04115240870168992	0.0007182450269708541	10.02347013289788
31.48	-0.3868344746942391	4.062644788340779	-28.63415713295527	0	0.93	0	20.29727204991848	-4.143026643083926	-9.993153001973765	2.045115992597789	0.0356940076560234	-4.319751221562165	-7.439185578971616	4.27950899974666	20.7921084327393	0.04274358557220111	0.0007460163023428538	10.26932421100435
31.49	-0.4087046268401238	4.106898723398071	-28.63408280090414	0	0.93	0	20.51585626354621	-4.18563921777397	-8.589393259846155	1.167323211496845	0.02037363347557408	-3.763270164721421	-7.742396825465907	4.10471506098375	20.65450649604138	0.04442054865462752	0.0007752848295655878	10.51868615726334
31.5	-0.4257159116039557	4.142266097225696	-28.63400427733102	0	0.93	0	20.79388392444492	-4.356692212241793	-7.296117387385816	0.6147450475298067	0.01072932513972416	-3.1527110089464	-8.069788024227432	3.910643368725518	20.52841537377268	0.04637686169183163	0.0008094289332644896	10.76835330123276
31.51	-0.4348473667303469	4.174936239458661	-28.63391085729238	0	0.93	0	21.17021685139751	-4.648460934912258	-6.214705867915377	0.3273528725001663	0.005713385440989104	-2.637005135734918	-8.396599282614492	3.721408596915952	20.39477952090161	0.048679846473267	0.000849623600323859	10.99699283072058
